<svg xmlns="http://www.w3.org/2000/svg" width="48" height="48" viewBox="0 0 48 48" fill="none">
<path d="M9.53639 40.216C9.1619 40.0098 9.05479 39.6944 9.08623 39.2867C9.37036 35.6027 11.0632 32.7904 14.5026 31.1388C15.5785 30.6221 16.7693 30.33 17.9165 29.9614C18.2281 29.8613 18.425 29.7139 18.5615 29.4181C18.836 28.8235 19.1519 28.247 19.4093 27.7439C18.9684 27.075 18.5672 26.4536 18.1469 25.8446C18.0921 25.7652 17.9437 25.7293 17.8319 25.7088C17.4639 25.6413 17.0654 25.6551 16.7283 25.5196C15.9798 25.2187 15.6188 24.613 15.573 23.831C15.5582 23.579 15.5707 23.3253 15.5707 23.0707C14.6039 22.6588 14.2388 21.9273 14.2651 20.9369C14.3052 19.4282 14.2301 17.9133 14.3392 16.4103C14.5111 14.0425 15.5382 12.024 17.3065 10.3968C19.4648 8.41092 22.0506 7.55117 24.9959 7.8375C27.6818 8.09861 29.8853 9.29788 31.5825 11.346C33.0668 13.1373 33.74 15.2124 33.7296 17.5092C33.7243 18.7022 33.7303 19.8954 33.7282 21.0885C33.7261 22.3758 32.9223 23.1654 31.6124 23.1701C31.2889 23.1713 30.9656 23.1703 30.5926 23.1703C30.4084 24.8808 29.788 26.4019 28.5415 27.6452C28.8965 28.3408 29.2365 29.0227 29.5969 29.6943C29.6468 29.7871 29.7895 29.8514 29.9032 29.8894C30.8321 30.1995 31.7696 30.4854 32.6944 30.8068C35.4132 31.7516 37.1942 33.6313 38.2588 36.2036C38.6669 37.1896 38.8559 38.2247 38.9158 39.2868C38.9388 39.6944 38.838 40.0101 38.4635 40.2162L9.53639 40.216ZM29.8161 18.5729C29.0879 18.443 28.4227 18.3555 27.7737 18.2027C25.8372 17.747 24.1256 16.8635 22.6433 15.5581C22.5498 15.4758 22.3994 15.3974 22.2833 15.4071C21.4594 15.4758 20.7128 15.7582 20.0374 16.2276C19.2888 16.7479 18.8137 17.4998 18.2766 18.1985C18.2157 18.2778 18.2121 18.4186 18.2218 18.5275C18.3313 19.7573 18.4295 20.9884 18.5709 22.2147C18.6561 22.9544 18.8119 23.6862 18.9387 24.4373C19.5778 24.4373 20.16 24.4456 20.7413 24.4275C20.8192 24.4251 20.9148 24.3011 20.9649 24.2132C21.3379 23.5587 21.9035 23.2053 22.6669 23.1758C23.1201 23.1583 23.5753 23.1585 24.0285 23.1758C25.1268 23.2173 25.9591 24.0608 25.9431 25.0991C25.9273 26.1273 25.0943 26.9361 24.0066 26.9691C23.6071 26.9812 23.2069 26.9726 22.807 26.9721C21.963 26.9712 21.3371 26.6187 20.9449 25.8791C20.907 25.8079 20.8197 25.7163 20.7519 25.7134C20.3707 25.6974 19.9886 25.7057 19.5858 25.7057C20.0143 26.543 20.9623 27.4055 21.9035 27.8069C25.0041 29.129 28.1958 27.3756 29.0462 24.2882C29.2667 23.4877 29.3742 22.6533 29.4806 21.8279C29.6194 20.7516 29.7057 19.6689 29.8161 18.5729ZM22.8626 38.9322C21.1071 36.4346 19.3859 33.9854 18.4263 31.1223C17.584 31.3976 16.812 31.6668 16.0294 31.9024C13.9941 32.5154 12.5047 33.7734 11.4678 35.5645C10.8662 36.6038 10.5094 37.7206 10.4183 38.9322H22.8626ZM25.1384 38.9311H37.5914C37.5561 38.6713 37.5378 38.4293 37.489 38.1933C36.9365 35.5209 35.5138 33.4667 32.9538 32.2804C32.1499 31.9079 31.2712 31.6891 30.4257 31.4024C30.1546 31.3105 29.8807 31.2265 29.5688 31.1263C28.6084 34.0005 26.8898 36.4336 25.1384 38.9311ZM18.2213 16.0919C18.2746 16.0743 18.2989 16.073 18.3122 16.0606C18.3591 16.017 18.402 15.9695 18.4466 15.9237C19.5043 14.8344 20.8063 14.2554 22.3316 14.1192C22.7537 14.0815 23.0742 14.2006 23.3806 14.4847C25.1801 16.1531 27.3468 17.0211 29.7973 17.2541C29.809 17.2319 29.8253 17.2141 29.8274 17.1949C30.0628 15.0084 28.6419 12.7654 26.54 11.9453C25.5022 11.5403 24.4269 11.5439 23.3483 11.5812C21.2875 11.6522 19.7572 12.5965 18.7626 14.3542C18.462 14.8854 18.2671 15.4602 18.2213 16.0919ZM32.3769 16.6272C32.1466 12.6643 28.6151 8.96722 23.8617 9.04876C18.961 9.1328 15.7707 13.0535 15.6335 16.6247H16.8566C16.8664 16.5131 16.8729 16.4194 16.8827 16.3262C17.1762 13.54 18.6551 11.6329 21.3401 10.6474C22.5418 10.2063 23.8126 10.2258 25.0578 10.3404C27.7746 10.5907 29.6784 11.9861 30.6871 14.4656C30.9611 15.1393 31.05 15.885 31.2312 16.6271L32.3769 16.6272ZM23.9381 32.439C23.1876 33.2147 22.4581 33.9612 21.7442 34.7218C21.6931 34.7762 21.7183 34.9568 21.7721 35.0384C22.491 36.1277 23.2214 37.2097 23.9501 38.2927C23.9593 38.3065 23.9862 38.3087 24.0193 38.3223C24.7751 37.2008 25.5346 36.0785 26.2827 34.9489C26.3195 34.8932 26.2889 34.7432 26.2349 34.6896C25.4862 33.9449 24.7278 33.2094 23.9381 32.439ZM24.8934 31.4535C25.6301 32.1741 26.3491 32.8773 27.1186 33.6299C27.5564 32.591 27.9995 31.543 28.4368 30.4926C28.4616 30.4329 28.4621 30.343 28.4338 30.2861C28.1672 29.7496 27.8919 29.2173 27.6033 28.6529C26.6664 29.6211 25.7573 30.5607 24.8934 31.4535ZM22.9528 31.6137C22.024 30.7083 21.1278 29.8347 20.2365 28.9658C20.0378 29.3527 19.8052 29.7808 19.6008 30.2215C19.5513 30.328 19.5569 30.4907 19.6025 30.6024C19.9134 31.3652 20.2368 32.1234 20.5671 32.8785C20.6798 33.1364 20.8241 33.381 20.9689 33.6606C21.6642 32.9432 22.3308 32.2554 22.9528 31.6137ZM15.5705 17.9266C15.5705 19.0566 15.5627 20.161 15.5751 21.2652C15.5789 21.6121 15.8074 21.8577 16.1473 21.8862C16.4866 21.9145 16.8306 21.8924 17.1797 21.8924C17.0717 20.5599 16.9655 19.2513 16.8582 17.9266H15.5705ZM31.1413 17.9251C31.0339 19.2529 30.9276 20.5668 30.8196 21.9032C31.1155 21.9032 31.3835 21.9062 31.6515 21.9026C32.1802 21.8953 32.427 21.6603 32.4306 21.1472C32.4358 20.3996 32.432 19.6519 32.432 18.9041C32.432 18.5811 32.432 18.2582 32.432 17.9251H31.1413ZM23.3368 25.7009C23.5636 25.7009 23.7917 25.7149 24.0171 25.6977C24.3787 25.6701 24.6347 25.4091 24.6435 25.0859C24.6526 24.7533 24.3887 24.4636 24.0139 24.4463C23.5719 24.426 23.1277 24.4265 22.6857 24.4466C22.3239 24.4629 22.068 24.7337 22.0593 25.0568C22.0503 25.3896 22.3144 25.6686 22.6889 25.6982C22.9035 25.715 23.1208 25.701 23.3368 25.7009ZM24.9875 29.5087C24.5818 29.5087 24.2064 29.5202 23.8322 29.5055C23.4684 29.4911 23.1057 29.4497 22.7872 29.4238C23.1618 29.7915 23.5526 30.1749 23.9576 30.5724C24.291 30.2281 24.6426 29.8649 24.9875 29.5087ZM16.8818 23.1824C16.8174 24.1314 17.0284 24.4723 17.6152 24.396C17.5411 23.994 17.4671 23.5924 17.3914 23.1824H16.8818Z" fill="white"/>
<path d="M29.5896 28.4513C29.571 28.7457 29.4592 28.9269 29.21 29.0096C28.9454 29.0975 28.7441 29.0034 28.5892 28.7902C28.3212 28.4212 28.0682 28.0406 27.7871 27.6819C27.6534 27.5113 27.4661 27.3835 27.3096 27.2296C27.058 26.982 27.0309 26.6817 27.2313 26.4463C27.4402 26.2009 27.7542 26.1844 28.0394 26.4134C28.6469 26.9012 29.1331 27.4908 29.4938 28.1816C29.5435 28.2769 29.5668 28.3858 29.5895 28.4513H29.5896Z" fill="white"/>
<path d="M26.2553 25.7582C26.2479 26.0481 25.9852 26.2999 25.6977 26.2924C25.4077 26.2849 25.1561 26.0224 25.1635 25.7348C25.1709 25.4449 25.4334 25.1933 25.721 25.2006C26.011 25.2079 26.2627 25.4705 26.2553 25.7582Z" fill="white"/>
</svg>