<svg width="481" height="100" viewBox="0 0 481 100" fill="none" xmlns="http://www.w3.org/2000/svg">
<path d="M1.70703 25.4395H12.6139V74.7066H1.70703V25.4395Z" fill="white"/>
<path d="M70.2289 46.4745V74.7066H59.322V47.9508C59.322 39.1873 55.2215 34.9428 48.2417 34.9428C40.4743 34.9428 35.2394 39.9237 35.2394 49.7951V74.7031H24.3325V25.4395H34.7156V31.8063C38.2922 27.2839 43.9642 24.8872 50.7707 24.8872C61.9377 24.8872 70.2289 31.6222 70.2289 46.4745Z" fill="white"/>
<path d="M106.408 72.032C103.789 74.248 99.8654 75.3526 95.9384 75.3526C85.7288 75.3526 79.8833 69.6319 79.8833 58.7461V14.5537H90.7902V25.8076H103.269V35.033H90.7902V58.4648C90.7902 63.2616 93.1457 65.8458 97.2462 65.8458C99.515 65.8458 101.697 65.1998 103.355 63.8173L106.408 72.032Z" fill="white"/>
<path d="M147.334 60.2224L153.092 67.3255C148.992 72.5843 142.449 75.3526 134.421 75.3526C118.804 75.3526 108.681 64.7448 108.681 50.073C108.681 35.4047 118.804 24.8872 132.677 24.8872C145.679 24.8872 156.149 34.1126 156.235 49.5208L120.548 56.9018C122.817 62.5287 127.879 65.5749 134.685 65.5749C139.917 65.5715 143.93 63.8209 147.334 60.2224ZM119.237 49.427V49.5208L145.589 44.1682C144.104 38.1731 139.219 34.1126 132.677 34.1126C124.732 34.1126 119.237 40.0174 119.237 49.427Z" fill="white"/>
<path d="M192.356 24.8872V35.8667C191.395 35.6826 190.611 35.5888 189.827 35.5888C181.539 35.5888 176.304 40.7538 176.304 50.8129V74.7066H165.394V25.4395H175.777V32.6364C178.92 27.4714 184.592 24.8872 192.356 24.8872Z" fill="white"/>
<path d="M245.409 25.4395V74.7066H235.026V68.3398C231.362 73.0463 225.951 75.3526 219.581 75.3526C205.968 75.3526 196.022 65.3874 196.022 50.073C196.022 34.7587 205.968 24.8872 219.581 24.8872C225.513 24.8872 230.748 27.0095 234.502 31.4381V25.4395H245.409ZM234.675 50.073C234.675 40.6635 228.743 34.6649 220.802 34.6649C212.948 34.6649 207.016 40.6635 207.016 50.073C207.016 59.4826 212.948 65.4812 220.802 65.4812C228.743 65.4812 234.675 59.4826 234.675 50.073Z" fill="white"/>
<path d="M253.291 50.073C253.291 35.311 263.76 24.8872 278.508 24.8872C287.583 24.8872 294.823 28.8539 298.403 36.3287L290.025 41.4937C287.232 36.7872 283.045 34.6684 278.421 34.6684C270.393 34.6684 264.284 40.5732 264.284 50.0765C264.284 59.6701 270.393 65.4846 278.421 65.4846C283.045 65.4846 287.232 63.3624 290.025 58.6593L298.403 63.8243C294.826 71.2054 287.583 75.3561 278.508 75.3561C263.76 75.3526 253.291 64.8351 253.291 50.073Z" fill="white"/>
<path d="M332.258 72.032C329.639 74.248 325.715 75.3526 321.788 75.3526C311.579 75.3526 305.733 69.6319 305.733 58.7461V14.5537H316.64V25.8076H329.119V35.033H316.64V58.4648C316.64 63.2616 318.996 65.8458 323.096 65.8458C325.365 65.8458 327.547 65.1998 329.205 63.8173L332.258 72.032Z" fill="white"/>
<path d="M385.048 25.4395V74.7066H374.665V68.4335C371.175 72.956 365.676 75.3526 359.657 75.3526C347.703 75.3526 339.588 68.4335 339.588 53.5812V25.4429H350.495V52.0146C350.495 60.9622 354.509 65.2067 361.402 65.2067C368.993 65.2067 374.141 60.2258 374.141 50.3544V25.4464H385.048V25.4395Z" fill="white"/>
<path d="M442.319 25.4395V74.7066H431.936V68.3398C428.273 73.0463 422.861 75.3526 416.492 75.3526C402.879 75.3526 392.933 65.3874 392.933 50.073C392.933 34.7587 402.879 24.8872 416.492 24.8872C422.424 24.8872 427.659 27.0095 431.413 31.4381V25.4395H442.319ZM431.586 50.073C431.586 40.6635 425.654 34.6649 417.713 34.6649C409.859 34.6649 403.927 40.6635 403.927 50.073C403.927 59.4826 409.859 65.4812 417.713 65.4812C425.654 65.4812 431.586 59.4826 431.586 50.073Z" fill="white"/>
<path d="M481 24.8872V35.8667C480.039 35.6826 479.255 35.5888 478.471 35.5888C470.183 35.5888 464.948 40.7538 464.948 50.8129V74.7066H454.042V25.4395H464.425V32.6364C467.564 27.4714 473.236 24.8872 481 24.8872Z" fill="white"/>
<path d="M7.16026 14.3383C11.1148 14.3383 14.3205 11.1286 14.3205 7.16916C14.3205 3.20975 11.1148 0 7.16026 0C3.20576 0 0 3.20975 0 7.16916C0 11.1286 3.20576 14.3383 7.16026 14.3383Z" fill="#DF512C"/>
<path d="M7.16026 99.9999C11.1148 99.9999 14.3205 96.7902 14.3205 92.8308C14.3205 88.8714 11.1148 85.6616 7.16026 85.6616C3.20576 85.6616 0 88.8714 0 92.8308C0 96.7902 3.20576 99.9999 7.16026 99.9999Z" fill="#279CCD"/>
</svg>
