<svg xmlns="http://www.w3.org/2000/svg" width="53" height="7" viewBox="0 0 53 7" fill="none">
<g clip-path="url(#clip0_1545_3548)">
<path d="M13.4829 6.16553L13.4829 0.832842L39.5945 0.832841L39.5945 6.16553L13.4829 6.16553Z" fill="#021442"/>
<path d="M7.5993 3.49915C7.5993 1.56569 5.89814 -0.00169541 3.79965 -0.00169532C1.70116 -0.00169523 -2.37541e-07 1.56569 -1.53027e-07 3.49915C-6.85125e-08 5.43262 1.70116 7 3.79965 7C5.89814 7 7.59931 5.43262 7.5993 3.49915Z" fill="#DF512C"/>
<path d="M53.0019 3.49915C53.0019 1.56569 51.3007 -0.00169541 49.2022 -0.00169532C47.1037 -0.00169523 45.4026 1.56569 45.4026 3.49915C45.4026 5.43262 47.1037 7 49.2022 7C51.3007 7 53.0019 5.43262 53.0019 3.49915Z" fill="#279CCD"/>
</g>
<defs>
<clipPath id="clip0_1545_3548">
<rect width="7" height="53" fill="white" transform="translate(0 7) rotate(-90)"/>
</clipPath>
</defs>
</svg>